<svg width="18" height="20" viewBox="0 0 18 20" fill="none" xmlns="http://www.w3.org/2000/svg">
<path fill-rule="evenodd" clip-rule="evenodd" d="M15.6667 2.50016H14.8334V1.66683C14.8334 1.2085 14.4584 0.833496 14.0001 0.833496C13.5417 0.833496 13.1667 1.2085 13.1667 1.66683V2.50016H4.83342V1.66683C4.83342 1.2085 4.45841 0.833496 4.00008 0.833496C3.54175 0.833496 3.16675 1.2085 3.16675 1.66683V2.50016H2.33341C1.41675 2.50016 0.666748 3.25016 0.666748 4.16683V17.5002C0.666748 18.4168 1.41675 19.1668 2.33341 19.1668H15.6667C16.5834 19.1668 17.3334 18.4168 17.3334 17.5002V4.16683C17.3334 3.25016 16.5834 2.50016 15.6667 2.50016ZM14.8334 17.5002H3.16675C2.70841 17.5002 2.33341 17.1252 2.33341 16.6668V6.66683H15.6667V16.6668C15.6667 17.1252 15.2917 17.5002 14.8334 17.5002Z" fill="#969696"/>
</svg>
