<svg width="18" height="18" viewBox="0 0 18 18" fill="none" xmlns="http://www.w3.org/2000/svg">
<path fill-rule="evenodd" clip-rule="evenodd" d="M9.00008 0.666687C4.40008 0.666687 0.666748 4.40002 0.666748 9.00002C0.666748 13.6 4.40008 17.3334 9.00008 17.3334C13.6001 17.3334 17.3334 13.6 17.3334 9.00002C17.3334 4.40002 13.6001 0.666687 9.00008 0.666687ZM6.74175 12.575L3.75008 9.58335C3.42508 9.25836 3.42508 8.73336 3.75008 8.40836C4.07508 8.08335 4.60008 8.08335 4.92508 8.40836L7.33342 10.8084L13.0667 5.07502C13.3917 4.75002 13.9167 4.75002 14.2417 5.07502C14.5667 5.40002 14.5667 5.92502 14.2417 6.25002L7.91675 12.575C7.60008 12.9 7.06675 12.9 6.74175 12.575Z" fill="#E5F3FF"/>
</svg>
