<svg width="18" height="18" viewBox="0 0 18 18" fill="none" xmlns="http://www.w3.org/2000/svg">
<path fill-rule="evenodd" clip-rule="evenodd" d="M9.00008 0.666656C4.40008 0.666656 0.666748 4.39999 0.666748 8.99999C0.666748 13.6 4.40008 17.3333 9.00008 17.3333C13.6001 17.3333 17.3334 13.6 17.3334 8.99999C17.3334 4.39999 13.6001 0.666656 9.00008 0.666656ZM6.74175 12.575L3.75008 9.58332C3.42508 9.25832 3.42508 8.73333 3.75008 8.40832C4.07508 8.08332 4.60008 8.08332 4.92508 8.40832L7.33342 10.8083L13.0667 5.07499C13.3917 4.74999 13.9167 4.74999 14.2417 5.07499C14.5667 5.39999 14.5667 5.92499 14.2417 6.24999L7.91675 12.575C7.60008 12.9 7.06675 12.9 6.74175 12.575Z" fill="#0085FF"/>
</svg>
